<?xml version="1.0" encoding="utf-8"?>
<!-- Generator: Circuit Diagram, cdlibrary.dll 4.0.0.0 -->
<!DOCTYPE svg PUBLIC "-//W3C//DTD SVG 1.1//EN" "http://www.w3.org/Graphics/SVG/1.1/DTD/svg11.dtd">
<svg version="1.1" width="700" height="620" xmlns="http://www.w3.org/2000/svg">
	<text x="20" y="280" style="font-family:Arial;font-size:11px;text-anchor:start" dominant-baseline="middle" transform="rotate(0, 20, 280)">Frequency Pot.</text>
	<text x="500" y="150" style="font-family:Arial;font-size:11px;text-anchor:start" dominant-baseline="middle" transform="rotate(0, 500, 150)">Delivery Button</text>
	<text x="580" y="310" style="font-family:Arial;font-size:11px;text-anchor:start" dominant-baseline="middle" transform="rotate(0, 580, 310)">Power Ind. LED</text>
	<line x1="390" y1="90" x2="390" y2="420" style="stroke:rgb(0, 0, 0);stroke-linecap:square;stroke-width:2" />
	<line x1="190" y1="270" x2="210" y2="270" style="stroke:rgb(0, 0, 0);stroke-linecap:square;stroke-width:2" />
	<line x1="160" y1="300" x2="160" y2="350" style="stroke:rgb(0, 0, 0);stroke-linecap:square;stroke-width:2" />
	<line x1="160" y1="90" x2="160" y2="240" style="stroke:rgb(0, 0, 0);stroke-linecap:square;stroke-width:2" />
	<line x1="160" y1="240" x2="160" y2="250" style="stroke:rgb(0, 0, 0);stroke-linecap:square;stroke-width:2" />
	<line x1="160" y1="290" x2="160" y2="300" style="stroke:rgb(0, 0, 0);stroke-linecap:square;stroke-width:2" />
	<rect x="152" y="250" width="16" height="40" style="fill-opacity:0;fill:rgb(0, 0, 0);stroke:rgb(0, 0, 0);stroke-width:2" />
	<text x="146" y="270" style="font-family:Arial;font-size:11px;text-anchor:end" dominant-baseline="middle" transform="rotate(0, 146, 270)">200 kΩ</text>
	<path d="M 160,250 M 176,264 L 170,270 L 176,276 M 171,270 L 189,270" style="fill-opacity:0;fill:rgb(0, 0, 0);stroke:rgb(0, 0, 0);stroke-linecap:square;stroke-width:2" />
	<line x1="190" y1="300" x2="210" y2="300" style="stroke:rgb(0, 0, 0);stroke-linecap:square;stroke-width:2" />
	<line x1="190" y1="300" x2="190" y2="520" style="stroke:rgb(0, 0, 0);stroke-linecap:square;stroke-width:2" />
	<line x1="190" y1="520" x2="390" y2="520" style="stroke:rgb(0, 0, 0);stroke-linecap:square;stroke-width:2" />
	<line x1="200" y1="540" x2="390" y2="540" style="stroke:rgb(0, 0, 0);stroke-linecap:square;stroke-width:2" />
	<line x1="200" y1="310" x2="200" y2="540" style="stroke:rgb(0, 0, 0);stroke-linecap:square;stroke-width:2" />
	<line x1="200" y1="310" x2="210" y2="310" style="stroke:rgb(0, 0, 0);stroke-linecap:square;stroke-width:2" />
	<line x1="100" y1="560" x2="390" y2="560" style="stroke:rgb(0, 0, 0);stroke-linecap:square;stroke-width:2" />
	<line x1="380" y1="440" x2="390" y2="440" style="stroke:rgb(0, 0, 0);stroke-linecap:square;stroke-width:2" />
	<line x1="370" y1="460" x2="390" y2="460" style="stroke:rgb(0, 0, 0);stroke-linecap:square;stroke-width:2" />
	<line x1="360" y1="480" x2="390" y2="480" style="stroke:rgb(0, 0, 0);stroke-linecap:square;stroke-width:2" />
	<line x1="350" y1="500" x2="390" y2="500" style="stroke:rgb(0, 0, 0);stroke-linecap:square;stroke-width:2" />
	<line x1="340" y1="190" x2="380" y2="190" style="stroke:rgb(0, 0, 0);stroke-linecap:square;stroke-width:2" />
	<line x1="340" y1="250" x2="370" y2="250" style="stroke:rgb(0, 0, 0);stroke-linecap:square;stroke-width:2" />
	<line x1="340" y1="260" x2="360" y2="260" style="stroke:rgb(0, 0, 0);stroke-linecap:square;stroke-width:2" />
	<line x1="340" y1="280" x2="350" y2="280" style="stroke:rgb(0, 0, 0);stroke-linecap:square;stroke-width:2" />
	<line x1="380" y1="190" x2="380" y2="440" style="stroke:rgb(0, 0, 0);stroke-linecap:square;stroke-width:2" />
	<line x1="370" y1="250" x2="370" y2="460" style="stroke:rgb(0, 0, 0);stroke-linecap:square;stroke-width:2" />
	<line x1="360" y1="260" x2="360" y2="480" style="stroke:rgb(0, 0, 0);stroke-linecap:square;stroke-width:2" />
	<line x1="350" y1="280" x2="350" y2="500" style="stroke:rgb(0, 0, 0);stroke-linecap:square;stroke-width:2" />
	<rect x="400" y="410" width="100" height="160" style="fill-opacity:0;fill:rgb(0, 0, 0);stroke:rgb(0, 0, 0);stroke-width:2" />
	<line x1="390" y1="420" x2="400" y2="420" style="stroke:rgb(0, 0, 0);stroke-linecap:square;stroke-width:2" />
	<line x1="390" y1="440" x2="400" y2="440" style="stroke:rgb(0, 0, 0);stroke-linecap:square;stroke-width:2" />
	<line x1="500" y1="420" x2="510" y2="420" style="stroke:rgb(0, 0, 0);stroke-linecap:square;stroke-width:2" />
	<line x1="500" y1="440" x2="510" y2="440" style="stroke:rgb(0, 0, 0);stroke-linecap:square;stroke-width:2" />
	<text x="404" y="420" style="font-family:Arial;font-size:12px;text-anchor:start" dominant-baseline="middle" transform="rotate(0, 404, 420)">V+</text>
	<text x="404" y="440" style="font-family:Arial;font-size:12px;text-anchor:start" dominant-baseline="middle" transform="rotate(0, 404, 440)">M4 PWM</text>
	<text x="496" y="420" style="font-family:Arial;font-size:12px;text-anchor:end" dominant-baseline="middle" transform="rotate(0, 496, 420)">M1 +</text>
	<text x="496" y="440" style="font-family:Arial;font-size:12px;text-anchor:end" dominant-baseline="middle" transform="rotate(0, 496, 440)">M1 -</text>
	<line x1="390" y1="460" x2="400" y2="460" style="stroke:rgb(0, 0, 0);stroke-linecap:square;stroke-width:2" />
	<line x1="500" y1="460" x2="510" y2="460" style="stroke:rgb(0, 0, 0);stroke-linecap:square;stroke-width:2" />
	<text x="404" y="460" style="font-family:Arial;font-size:12px;text-anchor:start" dominant-baseline="middle" transform="rotate(0, 404, 460)">M3 PWM</text>
	<text x="496" y="460" style="font-family:Arial;font-size:12px;text-anchor:end" dominant-baseline="middle" transform="rotate(0, 496, 460)">M2 +</text>
	<line x1="390" y1="480" x2="400" y2="480" style="stroke:rgb(0, 0, 0);stroke-linecap:square;stroke-width:2" />
	<line x1="500" y1="480" x2="510" y2="480" style="stroke:rgb(0, 0, 0);stroke-linecap:square;stroke-width:2" />
	<text x="404" y="480" style="font-family:Arial;font-size:12px;text-anchor:start" dominant-baseline="middle" transform="rotate(0, 404, 480)">M2 PWM</text>
	<text x="496" y="480" style="font-family:Arial;font-size:12px;text-anchor:end" dominant-baseline="middle" transform="rotate(0, 496, 480)">M2 -</text>
	<line x1="390" y1="500" x2="400" y2="500" style="stroke:rgb(0, 0, 0);stroke-linecap:square;stroke-width:2" />
	<line x1="500" y1="500" x2="510" y2="500" style="stroke:rgb(0, 0, 0);stroke-linecap:square;stroke-width:2" />
	<text x="404" y="500" style="font-family:Arial;font-size:12px;text-anchor:start" dominant-baseline="middle" transform="rotate(0, 404, 500)">M1 PWM</text>
	<text x="496" y="500" style="font-family:Arial;font-size:12px;text-anchor:end" dominant-baseline="middle" transform="rotate(0, 496, 500)">M3 +</text>
	<line x1="390" y1="520" x2="400" y2="520" style="stroke:rgb(0, 0, 0);stroke-linecap:square;stroke-width:2" />
	<line x1="500" y1="520" x2="510" y2="520" style="stroke:rgb(0, 0, 0);stroke-linecap:square;stroke-width:2" />
	<text x="404" y="520" style="font-family:Arial;font-size:12px;text-anchor:start" dominant-baseline="middle" transform="rotate(0, 404, 520)">I2C Data</text>
	<text x="496" y="520" style="font-family:Arial;font-size:12px;text-anchor:end" dominant-baseline="middle" transform="rotate(0, 496, 520)">M3 -</text>
	<line x1="390" y1="540" x2="400" y2="540" style="stroke:rgb(0, 0, 0);stroke-linecap:square;stroke-width:2" />
	<line x1="500" y1="540" x2="510" y2="540" style="stroke:rgb(0, 0, 0);stroke-linecap:square;stroke-width:2" />
	<text x="404" y="540" style="font-family:Arial;font-size:12px;text-anchor:start" dominant-baseline="middle" transform="rotate(0, 404, 540)">I2C CLK</text>
	<text x="496" y="540" style="font-family:Arial;font-size:12px;text-anchor:end" dominant-baseline="middle" transform="rotate(0, 496, 540)">M4 +</text>
	<line x1="390" y1="560" x2="400" y2="560" style="stroke:rgb(0, 0, 0);stroke-linecap:square;stroke-width:2" />
	<line x1="500" y1="560" x2="510" y2="560" style="stroke:rgb(0, 0, 0);stroke-linecap:square;stroke-width:2" />
	<text x="404" y="560" style="font-family:Arial;font-size:12px;text-anchor:start" dominant-baseline="middle" transform="rotate(0, 404, 560)">GND</text>
	<text x="496" y="560" style="font-family:Arial;font-size:12px;text-anchor:end" dominant-baseline="middle" transform="rotate(0, 496, 560)">M4 -</text>
	<line x1="510" y1="520" x2="540" y2="520" style="stroke:rgb(0, 0, 0);stroke-linecap:square;stroke-width:2" />
	<line x1="540" y1="490" x2="570" y2="490" style="stroke:rgb(0, 0, 0);stroke-linecap:square;stroke-width:2" />
	<line x1="540" y1="530" x2="570" y2="530" style="stroke:rgb(0, 0, 0);stroke-linecap:square;stroke-width:2" />
	<line x1="540" y1="520" x2="540" y2="530" style="stroke:rgb(0, 0, 0);stroke-linecap:square;stroke-width:2" />
	<line x1="510" y1="500" x2="540" y2="500" style="stroke:rgb(0, 0, 0);stroke-linecap:square;stroke-width:2" />
	<line x1="540" y1="490" x2="540" y2="500" style="stroke:rgb(0, 0, 0);stroke-linecap:square;stroke-width:2" />
	<text x="420" y="400" style="font-family:Arial;font-size:11px;text-anchor:start" dominant-baseline="middle" transform="rotate(0, 420, 400)">Rotoshield</text>
	<line x1="570" y1="490" x2="570" y2="497" style="stroke:rgb(0, 0, 0);stroke-linecap:square;stroke-width:2" />
	<line x1="570" y1="523" x2="570" y2="530" style="stroke:rgb(0, 0, 0);stroke-linecap:square;stroke-width:2" />
	<ellipse cx="570" cy="510" rx="12" ry="12" style="fill-opacity:0;fill:rgb(0, 0, 0);stroke:rgb(0, 0, 0);stroke-width:2" />
	<text x="570" y="510" style="font-family:Arial;font-size:12px;text-anchor:middle" dominant-baseline="middle" transform="rotate(0, 570, 510)">M</text>
	<line x1="550" y1="330" x2="550" y2="350" style="stroke:rgb(0, 0, 0);stroke-linecap:square;stroke-width:2" />
	<line x1="550" y1="280" x2="550" y2="300" style="stroke:rgb(0, 0, 0);stroke-linecap:square;stroke-width:2" />
	<line x1="550" y1="220" x2="550" y2="230" style="stroke:rgb(0, 0, 0);stroke-linecap:square;stroke-width:2" />
	<line x1="340" y1="220" x2="550" y2="220" style="stroke:rgb(0, 0, 0);stroke-linecap:square;stroke-width:2" />
	<line x1="100" y1="90" x2="480" y2="90" style="stroke:rgb(0, 0, 0);stroke-linecap:square;stroke-width:2" />
	<line x1="480" y1="90" x2="480" y2="140" style="stroke:rgb(0, 0, 0);stroke-linecap:square;stroke-width:2" />
	<line x1="480" y1="170" x2="480" y2="240" style="stroke:rgb(0, 0, 0);stroke-linecap:square;stroke-width:2" />
	<line x1="480" y1="350" x2="550" y2="350" style="stroke:rgb(0, 0, 0);stroke-linecap:square;stroke-width:2" />
	<line x1="100" y1="350" x2="480" y2="350" style="stroke:rgb(0, 0, 0);stroke-linecap:square;stroke-width:2" />
	<line x1="480" y1="330" x2="480" y2="350" style="stroke:rgb(0, 0, 0);stroke-linecap:square;stroke-width:2" />
	<line x1="480" y1="240" x2="480" y2="280" style="stroke:rgb(0, 0, 0);stroke-linecap:square;stroke-width:2" />
	<line x1="340" y1="240" x2="480" y2="240" style="stroke:rgb(0, 0, 0);stroke-linecap:square;stroke-width:2" />
	<line x1="480" y1="140" x2="480" y2="141" style="stroke:rgb(0, 0, 0);stroke-linecap:square;stroke-width:2" />
	<line x1="480" y1="169" x2="480" y2="170" style="stroke:rgb(0, 0, 0);stroke-linecap:square;stroke-width:2" />
	<ellipse cx="480" cy="144" rx="3" ry="3" style="fill-opacity:0;fill:rgb(0, 0, 0);stroke:rgb(0, 0, 0);stroke-width:2" />
	<ellipse cx="480" cy="166" rx="3" ry="3" style="fill-opacity:0;fill:rgb(0, 0, 0);stroke:rgb(0, 0, 0);stroke-width:2" />
	<line x1="472" y1="143" x2="472" y2="167" style="stroke:rgb(0, 0, 0);stroke-linecap:square;stroke-width:2" />
	<line x1="466" y1="149" x2="466" y2="161" style="stroke:rgb(0, 0, 0);stroke-linecap:square;stroke-width:2" />
	<line x1="466" y1="155" x2="472" y2="155" style="stroke:rgb(0, 0, 0);stroke-linecap:square;stroke-width:2" />
	<line x1="550" y1="300" x2="550" y2="330" style="stroke:rgb(0, 0, 0);stroke-linecap:square;stroke-width:2" />
	<path d="M 550,322 M 542,322 L 558,322 M 550,322 L 558,307 L 542,307 L 550,322" style="fill-opacity:0;fill:rgb(0, 0, 0);stroke:rgb(0, 0, 0);stroke-linecap:square;stroke-width:2" />
	<path d="M 550,320 M 561,318 L 569,326 M 570,327 L 568,323 L 566,325 L 570,327 L 568,323" style="fill-opacity:0;fill:rgb(0, 0, 0);stroke:rgb(0, 0, 0);stroke-linecap:square;stroke-width:2" />
	<path d="M 550,320 M 554,324 L 562,332 M 563,333 L 561,329 L 559,331 L 563,333 L 561,329" style="fill-opacity:0;fill:rgb(0, 0, 0);stroke:rgb(0, 0, 0);stroke-linecap:square;stroke-width:2" />
	<line x1="100" y1="220" x2="100" y2="580" style="stroke:rgb(0, 0, 0);stroke-linecap:square;stroke-width:2" />
	<line x1="100" y1="220" x2="210" y2="220" style="stroke:rgb(0, 0, 0);stroke-linecap:square;stroke-width:2" />
	<line x1="100" y1="210" x2="210" y2="210" style="stroke:rgb(0, 0, 0);stroke-linecap:square;stroke-width:2" />
	<line x1="100" y1="50" x2="100" y2="210" style="stroke:rgb(0, 0, 0);stroke-linecap:square;stroke-width:2" />
	<path d="M 95,40 L 105,40 L 100,30 L 95,40" style="fill-opacity:0;fill:rgb(0, 0, 0);stroke:rgb(0, 0, 0);stroke-linecap:square;stroke-width:2" />
	<text x="94" y="34" style="font-family:Arial;font-size:12px;text-anchor:end" dominant-baseline="middle" transform="rotate(0, 94, 34)">+5V</text>
	<line x1="100" y1="40" x2="100" y2="50" style="stroke:rgb(0, 0, 0);stroke-linecap:square;stroke-width:2" />
	<line x1="100" y1="580" x2="100" y2="582" style="stroke:rgb(0, 0, 0);stroke-linecap:square;stroke-width:2" />
	<path d="M 92,582 L 108,582 L 100,590 L 92,582" style="fill-opacity:0;fill:rgb(0, 0, 0);stroke:rgb(0, 0, 0);stroke-linecap:square;stroke-width:2" />
	<line x1="550" y1="230" x2="550" y2="235" style="stroke:rgb(0, 0, 0);stroke-linecap:square;stroke-width:2" />
	<line x1="550" y1="275" x2="550" y2="280" style="stroke:rgb(0, 0, 0);stroke-linecap:square;stroke-width:2" />
	<path d="M 550,235 L 550,237 L 543,240 L 557,246 L 543,252 L 557,258 L 543,264 L 557,270 L 550,273 L 550,275" style="fill-opacity:0;fill:rgb(0, 0, 0);stroke:rgb(0, 0, 0);stroke-linecap:square;stroke-width:2" />
	<text x="536" y="255" style="font-family:Arial;font-size:11px;text-anchor:end" dominant-baseline="middle" transform="rotate(0, 536, 255)">1 kΩ</text>
	<line x1="480" y1="280" x2="480" y2="285" style="stroke:rgb(0, 0, 0);stroke-linecap:square;stroke-width:2" />
	<line x1="480" y1="325" x2="480" y2="330" style="stroke:rgb(0, 0, 0);stroke-linecap:square;stroke-width:2" />
	<path d="M 480,285 L 480,287 L 473,290 L 487,296 L 473,302 L 487,308 L 473,314 L 487,320 L 480,323 L 480,325" style="fill-opacity:0;fill:rgb(0, 0, 0);stroke:rgb(0, 0, 0);stroke-linecap:square;stroke-width:2" />
	<text x="466" y="311" style="font-family:Arial;font-size:11px;text-anchor:end" dominant-baseline="middle" transform="rotate(0, 466, 311)">1 kΩ</text>
	<text x="466" y="299" style="font-family:Arial;font-size:11px;text-anchor:end" dominant-baseline="middle" transform="rotate(0, 466, 299)">pull-up res.</text>
	<rect x="215" y="125" width="120" height="195" style="fill-opacity:0;fill:rgb(0, 0, 0);stroke:rgb(0, 0, 0);stroke-width:2" />
	<text x="251" y="155" style="font-family:Arial;font-size:11px;text-anchor:start" dominant-baseline="middle" transform="rotate(0, 251, 155)">ARDUINO</text>
	<text x="258" y="165" style="font-family:Arial;font-size:11px;text-anchor:start" dominant-baseline="middle" transform="rotate(0, 258, 165)">UNO r3</text>
	<line x1="210" y1="180" x2="215" y2="180" style="stroke:rgb(0, 0, 0);stroke-linecap:square;stroke-width:2" />
	<line x1="210" y1="190" x2="215" y2="190" style="stroke:rgb(0, 0, 0);stroke-linecap:square;stroke-width:2" />
	<line x1="210" y1="200" x2="215" y2="200" style="stroke:rgb(0, 0, 0);stroke-linecap:square;stroke-width:2" />
	<line x1="210" y1="210" x2="215" y2="210" style="stroke:rgb(0, 0, 0);stroke-linecap:square;stroke-width:2" />
	<line x1="210" y1="220" x2="215" y2="220" style="stroke:rgb(0, 0, 0);stroke-linecap:square;stroke-width:2" />
	<line x1="210" y1="230" x2="215" y2="230" style="stroke:rgb(0, 0, 0);stroke-linecap:square;stroke-width:2" />
	<line x1="210" y1="240" x2="215" y2="240" style="stroke:rgb(0, 0, 0);stroke-linecap:square;stroke-width:2" />
	<line x1="210" y1="260" x2="215" y2="260" style="stroke:rgb(0, 0, 0);stroke-linecap:square;stroke-width:2" />
	<line x1="210" y1="270" x2="215" y2="270" style="stroke:rgb(0, 0, 0);stroke-linecap:square;stroke-width:2" />
	<line x1="210" y1="280" x2="215" y2="280" style="stroke:rgb(0, 0, 0);stroke-linecap:square;stroke-width:2" />
	<line x1="210" y1="290" x2="215" y2="290" style="stroke:rgb(0, 0, 0);stroke-linecap:square;stroke-width:2" />
	<line x1="210" y1="300" x2="215" y2="300" style="stroke:rgb(0, 0, 0);stroke-linecap:square;stroke-width:2" />
	<line x1="210" y1="310" x2="215" y2="310" style="stroke:rgb(0, 0, 0);stroke-linecap:square;stroke-width:2" />
	<line x1="335" y1="150" x2="340" y2="150" style="stroke:rgb(0, 0, 0);stroke-linecap:square;stroke-width:2" />
	<line x1="335" y1="160" x2="340" y2="160" style="stroke:rgb(0, 0, 0);stroke-linecap:square;stroke-width:2" />
	<line x1="335" y1="170" x2="340" y2="170" style="stroke:rgb(0, 0, 0);stroke-linecap:square;stroke-width:2" />
	<line x1="335" y1="180" x2="340" y2="180" style="stroke:rgb(0, 0, 0);stroke-linecap:square;stroke-width:2" />
	<line x1="335" y1="190" x2="340" y2="190" style="stroke:rgb(0, 0, 0);stroke-linecap:square;stroke-width:2" />
	<line x1="335" y1="200" x2="340" y2="200" style="stroke:rgb(0, 0, 0);stroke-linecap:square;stroke-width:2" />
	<line x1="335" y1="210" x2="340" y2="210" style="stroke:rgb(0, 0, 0);stroke-linecap:square;stroke-width:2" />
	<line x1="335" y1="220" x2="340" y2="220" style="stroke:rgb(0, 0, 0);stroke-linecap:square;stroke-width:2" />
	<line x1="335" y1="240" x2="340" y2="240" style="stroke:rgb(0, 0, 0);stroke-linecap:square;stroke-width:2" />
	<line x1="335" y1="250" x2="340" y2="250" style="stroke:rgb(0, 0, 0);stroke-linecap:square;stroke-width:2" />
	<line x1="335" y1="260" x2="340" y2="260" style="stroke:rgb(0, 0, 0);stroke-linecap:square;stroke-width:2" />
	<line x1="335" y1="270" x2="340" y2="270" style="stroke:rgb(0, 0, 0);stroke-linecap:square;stroke-width:2" />
	<line x1="335" y1="280" x2="340" y2="280" style="stroke:rgb(0, 0, 0);stroke-linecap:square;stroke-width:2" />
	<line x1="335" y1="290" x2="340" y2="290" style="stroke:rgb(0, 0, 0);stroke-linecap:square;stroke-width:2" />
	<line x1="335" y1="300" x2="340" y2="300" style="stroke:rgb(0, 0, 0);stroke-linecap:square;stroke-width:2" />
	<line x1="335" y1="310" x2="340" y2="310" style="stroke:rgb(0, 0, 0);stroke-linecap:square;stroke-width:2" />
	<text x="219" y="180" style="font-family:Arial;font-size:11px;text-anchor:start" dominant-baseline="middle" transform="rotate(0, 219, 180)">IOREF</text>
	<text x="219" y="190" style="font-family:Arial;font-size:11px;text-anchor:start" dominant-baseline="middle" transform="rotate(0, 219, 190)">RESET</text>
	<text x="219" y="200" style="font-family:Arial;font-size:11px;text-anchor:start" dominant-baseline="middle" transform="rotate(0, 219, 200)">3.3V</text>
	<text x="219" y="210" style="font-family:Arial;font-size:11px;text-anchor:start" dominant-baseline="middle" transform="rotate(0, 219, 210)">5V</text>
	<text x="219" y="220" style="font-family:Arial;font-size:11px;text-anchor:start" dominant-baseline="middle" transform="rotate(0, 219, 220)">GND</text>
	<text x="219" y="230" style="font-family:Arial;font-size:11px;text-anchor:start" dominant-baseline="middle" transform="rotate(0, 219, 230)">GND</text>
	<text x="219" y="240" style="font-family:Arial;font-size:11px;text-anchor:start" dominant-baseline="middle" transform="rotate(0, 219, 240)">Vin</text>
	<text x="219" y="260" style="font-family:Arial;font-size:11px;text-anchor:start" dominant-baseline="middle" transform="rotate(0, 219, 260)">A0</text>
	<text x="219" y="270" style="font-family:Arial;font-size:11px;text-anchor:start" dominant-baseline="middle" transform="rotate(0, 219, 270)">A1</text>
	<text x="219" y="280" style="font-family:Arial;font-size:11px;text-anchor:start" dominant-baseline="middle" transform="rotate(0, 219, 280)">A2</text>
	<text x="219" y="290" style="font-family:Arial;font-size:11px;text-anchor:start" dominant-baseline="middle" transform="rotate(0, 219, 290)">A3</text>
	<text x="219" y="300" style="font-family:Arial;font-size:11px;text-anchor:start" dominant-baseline="middle" transform="rotate(0, 219, 300)">A4</text>
	<text x="219" y="310" style="font-family:Arial;font-size:11px;text-anchor:start" dominant-baseline="middle" transform="rotate(0, 219, 310)">A5</text>
	<text x="331" y="150" style="font-family:Arial;font-size:11px;text-anchor:end" dominant-baseline="middle" transform="rotate(0, 331, 150)">AREF</text>
	<text x="331" y="160" style="font-family:Arial;font-size:11px;text-anchor:end" dominant-baseline="middle" transform="rotate(0, 331, 160)">GND</text>
	<text x="331" y="170" style="font-family:Arial;font-size:11px;text-anchor:end" dominant-baseline="middle" transform="rotate(0, 331, 170)">D13</text>
	<text x="331" y="180" style="font-family:Arial;font-size:11px;text-anchor:end" dominant-baseline="middle" transform="rotate(0, 331, 180)">D12</text>
	<text x="331" y="190" style="font-family:Arial;font-size:11px;text-anchor:end" dominant-baseline="middle" transform="rotate(0, 331, 190)">PWM D11</text>
	<text x="331" y="200" style="font-family:Arial;font-size:11px;text-anchor:end" dominant-baseline="middle" transform="rotate(0, 331, 200)">PWM D10</text>
	<text x="331" y="210" style="font-family:Arial;font-size:11px;text-anchor:end" dominant-baseline="middle" transform="rotate(0, 331, 210)">PWM   D9</text>
	<text x="331" y="220" style="font-family:Arial;font-size:11px;text-anchor:end" dominant-baseline="middle" transform="rotate(0, 331, 220)">D8</text>
	<text x="331" y="240" style="font-family:Arial;font-size:11px;text-anchor:end" dominant-baseline="middle" transform="rotate(0, 331, 240)">D7</text>
	<text x="331" y="250" style="font-family:Arial;font-size:11px;text-anchor:end" dominant-baseline="middle" transform="rotate(0, 331, 250)">PWM   D6</text>
	<text x="331" y="260" style="font-family:Arial;font-size:11px;text-anchor:end" dominant-baseline="middle" transform="rotate(0, 331, 260)">PWM   D5</text>
	<text x="331" y="270" style="font-family:Arial;font-size:11px;text-anchor:end" dominant-baseline="middle" transform="rotate(0, 331, 270)">D4</text>
	<text x="331" y="280" style="font-family:Arial;font-size:11px;text-anchor:end" dominant-baseline="middle" transform="rotate(0, 331, 280)">PWM   D3</text>
	<text x="331" y="290" style="font-family:Arial;font-size:11px;text-anchor:end" dominant-baseline="middle" transform="rotate(0, 331, 290)">D2</text>
	<text x="331" y="300" style="font-family:Arial;font-size:11px;text-anchor:end" dominant-baseline="middle" transform="rotate(0, 331, 300)">TX   D1</text>
	<text x="331" y="310" style="font-family:Arial;font-size:11px;text-anchor:end" dominant-baseline="middle" transform="rotate(0, 331, 310)">RX   D0</text>
	<path d="M 275,140 M 275,140 c 2,9 15,9 15,0 c 0,-9 -13,-9 -15,0" style="fill-opacity:0;fill:rgb(0, 0, 0);stroke:rgb(0, 0, 0);stroke-linecap:square;stroke-width:2" />
	<path d="M 275,140 M 275,140 c -2,-9 -15,-9 -15,0 c 0,9 13,9 15,0" style="fill-opacity:0;fill:rgb(0, 0, 0);stroke:rgb(0, 0, 0);stroke-linecap:square;stroke-width:2" />
	<line x1="281" y1="140" x2="285" y2="140" style="stroke:rgb(0, 0, 0);stroke-linecap:square;stroke-width:2" />
	<line x1="283" y1="142" x2="283" y2="138" style="stroke:rgb(0, 0, 0);stroke-linecap:square;stroke-width:2" />
	<line x1="269" y1="140" x2="265" y2="140" style="stroke:rgb(0, 0, 0);stroke-linecap:square;stroke-width:2" />
	<ellipse cx="390" cy="90" rx="2" ry="2" style="fill-opacity:1;fill:rgb(0, 0, 0);stroke:rgb(0, 0, 0);stroke-width:2" />
	<ellipse cx="160" cy="350" rx="2" ry="2" style="fill-opacity:1;fill:rgb(0, 0, 0);stroke:rgb(0, 0, 0);stroke-width:2" />
	<ellipse cx="160" cy="90" rx="2" ry="2" style="fill-opacity:1;fill:rgb(0, 0, 0);stroke:rgb(0, 0, 0);stroke-width:2" />
	<ellipse cx="100" cy="560" rx="2" ry="2" style="fill-opacity:1;fill:rgb(0, 0, 0);stroke:rgb(0, 0, 0);stroke-width:2" />
	<ellipse cx="100" cy="90" rx="2" ry="2" style="fill-opacity:1;fill:rgb(0, 0, 0);stroke:rgb(0, 0, 0);stroke-width:2" />
	<ellipse cx="480" cy="240" rx="2" ry="2" style="fill-opacity:1;fill:rgb(0, 0, 0);stroke:rgb(0, 0, 0);stroke-width:2" />
	<ellipse cx="480" cy="350" rx="2" ry="2" style="fill-opacity:1;fill:rgb(0, 0, 0);stroke:rgb(0, 0, 0);stroke-width:2" />
	<ellipse cx="100" cy="350" rx="2" ry="2" style="fill-opacity:1;fill:rgb(0, 0, 0);stroke:rgb(0, 0, 0);stroke-width:2" />
</svg>